<svg viewBox="0 0 640 480" xmlns="http://www.w3.org/2000/svg">
 <g>
  <title>Layer 1</title>
  <path transform="rotate(-106.85075378417969 307.99999999999994,257) " d="m533,74c-1,0 -0.69342,1.4588 -2,2c-0.92389,0.38268 -0.85272,1.1731 -2,2c-1.81396,1.30745 -3,2 -5,4c-2,2 -4,4 -5,5c-2,2 -3.81268,4.20681 -6,6c-2.78833,2.28588 -5.14682,4.86325 -7,7c-3.276,3.77727 -6.3851,6.37202 -9,10c-3.30762,4.58908 -6.10556,7.21115 -7,9c-2.23605,4.47214 -5.54901,4.60641 -9,10c-1.20514,1.88351 -5,6 -10,11c-3,3 -7.34097,5.67738 -13,12c-4.27039,4.77115 -7.73114,8.28415 -13,13c-4.77115,4.27039 -8.31,5.33749 -11,7c-4.81201,2.97398 -7.04025,7.95021 -12,12c-6.04968,4.93976 -12.40967,7.52013 -16,11c-4.59787,4.45642 -15.46448,12.46446 -19,16c-3.53552,3.53554 -7.78381,6.42006 -11,9c-3.48846,2.79834 -6.22885,6.72961 -11,11c-4.21509,3.77267 -8,7 -10,9c-4,4 -6.21167,6.71411 -9,9c-4.37469,3.5864 -6.16125,5.79626 -10,9c-1.71674,1.43277 -5.61105,3.92807 -8,6c-1.68924,1.46509 -4.297,5.61383 -7,8c-3.35266,2.95969 -7.14682,3.86325 -9,6c-3.276,3.77728 -7,8 -9,10c-2,2 -3.71411,4.21167 -6,7c-3.5864,4.37469 -6.32367,4.52017 -8,6c-2.703,2.38617 -4.41092,4.69238 -9,8c-1.814,1.30746 -3.21167,2.71411 -6,5c-1.09366,0.89661 -4.186,3.69254 -6,5c-3.4418,2.48071 -3.71411,4.21167 -6,7c-1.79318,2.18735 -2.82108,5.29871 -6,7c-0.88167,0.47186 -3.186,2.69254 -5,4c-2.29454,1.65381 -3.90633,4.10339 -5,5c-2.78833,2.28589 -3.297,3.61383 -6,6c-1.67633,1.47983 -3.1731,1.85272 -4,3c-1.30745,1.814 -2.58578,3.58578 -4,5c-1.41422,1.41422 -3.02675,2.77023 -4,3c-2.17625,0.51373 -3,3 -4,4c-1,1 -3.29869,0.82108 -5,4c-0.47186,0.88168 -0.69344,2.4588 -2,3c-0.92387,0.38269 -3,1 -4,2c-1,1 -2.797,2.2565 -4,3c-2.68999,1.66251 -3.85274,2.1731 -5,3c-1.814,1.30746 -4.14935,1.47427 -5,2c-1.90211,1.17557 -1.85274,3.1731 -3,4c-1.814,1.30746 -2.82375,2.48627 -5,3c-1.9465,0.4595 -2.186,2.69254 -4,4c-1.14726,0.8269 -3.07613,1.61731 -4,2c-1.30656,0.5412 -2.29289,2.29291 -3,3c-0.70711,0.70709 -2.29869,-0.05145 -4,1c-1.90211,1.17557 -2.85274,3.1731 -4,4c-1.814,1.30746 -3.69344,1.4588 -5,2c-0.92387,0.38269 -2.41885,-0.58115 -4,1c-1.58115,1.58115 -2.07613,1.61731 -3,2c-1.30656,0.5412 -2.29289,2.29291 -3,3c-1.41422,1.41422 -1.69344,1.4588 -3,2c-1.84776,0.76538 -2.07613,0.61731 -3,1c-1.30656,0.5412 -1.29289,1.29291 -2,2c-0.70711,0.70709 -1.29289,0.29291 -2,1c-0.70711,0.70709 -1.15224,0.23462 -3,1c-1.30656,0.5412 -1.69344,1.4588 -3,2c-0.92387,0.38269 -1.61731,0.07611 -2,1c-0.5412,1.30655 -3,1 -5,1c-1,0 -1,1 -2,1c-1,0 -2,0 -3,1c-1,1 -2,1 -3,1c-1,0 -1,1 -3,1c-1,0 -1.69344,1.4588 -3,2c-0.92388,0.38269 -1.69344,0.4588 -3,1c-0.92388,0.38269 -1.29289,0.29291 -2,1c-0.70711,0.70709 -3,0 -4,0c-1,0 -2.15224,0.23462 -4,1c-1.30656,0.5412 -2.29289,0.29291 -3,1c-0.70711,0.70709 -0.69344,1.4588 -2,2c-0.92388,0.38269 -1.69344,0.4588 -3,1c-0.92388,0.38269 -2,0 -3,1c-1,1 -2.29289,1.29291 -3,2c-0.70711,0.70709 -2,0 -3,1c-1,1 -2,1 -3,1c-1,0 -2,1 -3,2l-1,0" id="svg_6" stroke-linecap="round" stroke-linejoin="bevel" stroke-width="40" stroke="#c5312d" fill="none"/>
 </g>
</svg>