<svg viewBox="0 0 640 480" xmlns="http://www.w3.org/2000/svg">
 <g>
  <title>Layer 1</title>
  <path d="m524,54c-1,1 -2.07611,1.61732 -3,2c-1.30652,0.5412 -1.0979,1.82443 -3,3c-0.85065,0.52573 -5,3 -6,4c-2,2 -3.81265,4.20681 -6,6c-2.78833,2.28588 -4.724,4.22273 -8,8c-1.85318,2.13675 -6.22885,5.72962 -11,10c-3.16132,2.82951 -7.22885,5.72962 -12,10c-4.21509,3.77267 -10,9 -15,14c-5,5 -8.73578,10.23541 -15,17c-4.80444,5.1882 -11.37128,10.59218 -18,17c-4.60376,4.45033 -10.44763,10.51414 -17,17c-7.5549,7.4782 -15.15631,14.79704 -23,21c-6.1261,4.84467 -14.91626,10.09688 -23,17c-5.93933,5.07191 -13.88147,10.42421 -22,16c-8.16028,5.60446 -14.39334,13.57443 -22,21c-5.58881,5.45575 -15.43625,11.43967 -22,17c-4.31628,3.65646 -11.43625,8.43967 -18,14c-7.55353,6.39877 -15,11 -20,16c-6,6 -9.43625,8.43967 -16,14c-5.39537,4.57056 -10,9 -15,14c-4,4 -9.68564,7.22192 -14,13c-4.67282,6.25818 -9.69363,8.73038 -16,13c-4.68425,3.17139 -5.47231,5.47232 -10,10c-4.52769,4.52768 -6.41092,6.69238 -11,10c-3.62799,2.6149 -5.54123,3.51871 -10,7c-4.59599,3.58844 -8,5 -11,8c-2,2 -6.64734,4.04031 -10,7c-2.703,2.38617 -3.41092,4.69238 -8,8c-1.814,1.30746 -3,3 -5,5c-1,1 -2.70546,2.34619 -5,4c-1.814,1.30746 -2.69344,2.4588 -4,3c-0.92388,0.38269 -2.29289,1.29291 -3,2c-0.70711,0.70709 -1.61732,1.07611 -2,2c-0.5412,1.30655 -1.47427,1.14935 -2,2c-1.17557,1.9021 -3.07612,1.61731 -4,2c-1.30656,0.5412 -1.61732,1.07611 -2,2c-0.5412,1.30655 -2.29289,0.29291 -3,1c-0.70711,0.70709 -1,1 -2,2c-1,1 -1.29289,1.29291 -2,2c-0.70711,0.70709 -1.29289,0.29291 -2,1c-0.70711,0.70709 -2,0 -2,1c0,1 -1.29289,0.29291 -2,1c-0.70711,0.70709 -1,1 -2,2l-1,1l-1,0" id="svg_5" stroke-linecap="round" stroke-linejoin="bevel" stroke-width="40" stroke="#c5312d" fill="none"/>
  <path transform="rotate(-106.85075378417969 307.99999999999994,257) " d="m533,74c-1,0 -0.69342,1.4588 -2,2c-0.92389,0.38268 -0.85272,1.1731 -2,2c-1.81396,1.30745 -3,2 -5,4c-2,2 -4,4 -5,5c-2,2 -3.81268,4.20681 -6,6c-2.78833,2.28588 -5.14682,4.86325 -7,7c-3.276,3.77727 -6.3851,6.37202 -9,10c-3.30762,4.58908 -6.10556,7.21115 -7,9c-2.23605,4.47214 -5.54901,4.60641 -9,10c-1.20514,1.88351 -5,6 -10,11c-3,3 -7.34097,5.67738 -13,12c-4.27039,4.77115 -7.73114,8.28415 -13,13c-4.77115,4.27039 -8.31,5.33749 -11,7c-4.81201,2.97398 -7.04025,7.95021 -12,12c-6.04968,4.93976 -12.40967,7.52013 -16,11c-4.59787,4.45642 -15.46448,12.46446 -19,16c-3.53552,3.53554 -7.78381,6.42006 -11,9c-3.48846,2.79834 -6.22885,6.72961 -11,11c-4.21509,3.77267 -8,7 -10,9c-4,4 -6.21167,6.71411 -9,9c-4.37469,3.5864 -6.16125,5.79626 -10,9c-1.71674,1.43277 -5.61105,3.92807 -8,6c-1.68924,1.46509 -4.297,5.61383 -7,8c-3.35266,2.95969 -7.14682,3.86325 -9,6c-3.276,3.77728 -7,8 -9,10c-2,2 -3.71411,4.21167 -6,7c-3.5864,4.37469 -6.32367,4.52017 -8,6c-2.703,2.38617 -4.41092,4.69238 -9,8c-1.814,1.30746 -3.21167,2.71411 -6,5c-1.09366,0.89661 -4.186,3.69254 -6,5c-3.4418,2.48071 -3.71411,4.21167 -6,7c-1.79318,2.18735 -2.82108,5.29871 -6,7c-0.88167,0.47186 -3.186,2.69254 -5,4c-2.29454,1.65381 -3.90633,4.10339 -5,5c-2.78833,2.28589 -3.297,3.61383 -6,6c-1.67633,1.47983 -3.1731,1.85272 -4,3c-1.30745,1.814 -2.58578,3.58578 -4,5c-1.41422,1.41422 -3.02675,2.77023 -4,3c-2.17625,0.51373 -3,3 -4,4c-1,1 -3.29869,0.82108 -5,4c-0.47186,0.88168 -0.69344,2.4588 -2,3c-0.92387,0.38269 -3,1 -4,2c-1,1 -2.797,2.2565 -4,3c-2.68999,1.66251 -3.85274,2.1731 -5,3c-1.814,1.30746 -4.14935,1.47427 -5,2c-1.90211,1.17557 -1.85274,3.1731 -3,4c-1.814,1.30746 -2.82375,2.48627 -5,3c-1.9465,0.4595 -2.186,2.69254 -4,4c-1.14726,0.8269 -3.07613,1.61731 -4,2c-1.30656,0.5412 -2.29289,2.29291 -3,3c-0.70711,0.70709 -2.29869,-0.05145 -4,1c-1.90211,1.17557 -2.85274,3.1731 -4,4c-1.814,1.30746 -3.69344,1.4588 -5,2c-0.92387,0.38269 -2.41885,-0.58115 -4,1c-1.58115,1.58115 -2.07613,1.61731 -3,2c-1.30656,0.5412 -2.29289,2.29291 -3,3c-1.41422,1.41422 -1.69344,1.4588 -3,2c-1.84776,0.76538 -2.07613,0.61731 -3,1c-1.30656,0.5412 -1.29289,1.29291 -2,2c-0.70711,0.70709 -1.29289,0.29291 -2,1c-0.70711,0.70709 -1.15224,0.23462 -3,1c-1.30656,0.5412 -1.69344,1.4588 -3,2c-0.92387,0.38269 -1.61731,0.07611 -2,1c-0.5412,1.30655 -3,1 -5,1c-1,0 -1,1 -2,1c-1,0 -2,0 -3,1c-1,1 -2,1 -3,1c-1,0 -1,1 -3,1c-1,0 -1.69344,1.4588 -3,2c-0.92388,0.38269 -1.69344,0.4588 -3,1c-0.92388,0.38269 -1.29289,0.29291 -2,1c-0.70711,0.70709 -3,0 -4,0c-1,0 -2.15224,0.23462 -4,1c-1.30656,0.5412 -2.29289,0.29291 -3,1c-0.70711,0.70709 -0.69344,1.4588 -2,2c-0.92388,0.38269 -1.69344,0.4588 -3,1c-0.92388,0.38269 -2,0 -3,1c-1,1 -2.29289,1.29291 -3,2c-0.70711,0.70709 -2,0 -3,1c-1,1 -2,1 -3,1c-1,0 -2,1 -3,2l-1,0" id="svg_6" stroke-linecap="round" stroke-linejoin="bevel" stroke-width="40" stroke="#c5312d" fill="none"/>
  <path d="m360,102c-1,0 -3,-1 -5,-1c-1,0 -3,0 -4,0c-19,0 -23,-1 -27,-1c-4,0 -7.01456,-0.38126 -12,0c-13.11465,1.00292 -17,3 -20,3c-5,0 -12.90295,2.35069 -34,8c-3.98279,1.0665 -7.88731,3.37669 -14,5c-4.92821,1.30875 -11.5645,1.29156 -29,8c-4.17384,1.60592 -9.94341,4.14772 -15,6c-5.93866,2.17538 -22.19577,12.64886 -26,15c-4.25325,2.62866 -8,6 -12,8c-6,3 -16,10 -20,14c-2,2 -2.88152,2.19028 -6,4c-1.93401,1.12234 -6.23181,3.42796 -13,10c-2.58672,2.51175 -5.297,4.61383 -8,7c-1.67633,1.47984 -11.19028,9.88152 -13,13c-1.12234,1.93399 -0.94854,3.29869 -2,5c-1.17557,1.90211 -3.48626,6.82375 -4,9c-0.4595,1.9465 -1.29289,3.29289 -2,4c-7.07107,7.07108 0,12 0,14c0,2 -0.49622,3.90779 -1,8c-0.24437,1.98502 0,4 0,7c0,3 -0.16018,8.01291 0,9c0.50654,3.12146 2.49346,5.87857 3,9c0.64073,3.94836 1.14429,6.93414 2,9c1.21015,2.92157 2.41886,5.25659 4,10c0.31623,0.9487 1.6383,4.23892 3,8c2.65881,7.34375 4.83772,10.83771 8,14c3.16228,3.16229 5.31021,5.71899 8,9c2.28588,2.78833 2.71899,3.31021 6,6c2.78833,2.28589 5.41092,6.69238 10,10c1.814,1.30746 3.37201,3.3851 7,6c3.4418,2.48071 5.02675,4.77023 6,5c2.17625,0.51373 4.80901,2.32144 8,4c4.76599,2.50705 7.6689,2.62021 11,4c4.71088,1.95132 8.87605,3.34314 14,5c3.92311,1.26855 9.05414,1.43268 12,2c5.28799,1.01837 10.3154,1.4353 19,4c2.14452,0.6333 2.94672,1.49875 10,2c2.99245,0.21268 9.01363,-0.32993 13,0c6.06204,0.50171 10.93796,1.49829 17,2c3.98636,0.32993 10.93796,1.49829 17,2c5.97955,0.49487 10.92578,0.49756 16,1c4.97568,0.49268 11,0 18,0c5,0 10,-1 13,-1c4,0 7,0 10,0c6,0 10,0 13,0c4,0 10,0 14,0c1,0 6.02432,0.49268 11,0c5.07422,-0.50244 9,-2 13,-2c4,0 9.1181,-1.3754 16,-3c3.0777,-0.72653 6.95331,-3.49902 15,-4c2.9942,-0.1864 7.17697,-1.34518 12,-3c4.23007,-1.45139 6.54916,-2.95517 10,-4c3.82837,-1.15915 6.30804,-1.90967 10,-4c3.58792,-2.03146 8.0979,-2.82443 10,-4c4.25327,-2.62866 6.76108,-4.41589 10,-6c2.84073,-1.38934 6.13464,-3.81146 9,-6c2.51309,-1.91949 5.61383,-4.297 8,-7c1.47983,-1.67633 3.2565,-3.797 4,-5c1.66251,-2.69 3.9176,-5.38687 5,-8c1.14804,-2.77164 0.78986,-4.07843 2,-7c0.85571,-2.06586 2.9176,-2.38687 4,-5c1.53073,-3.69553 2.31073,-5.08026 3,-8c0.51373,-2.17624 2.4588,-4.69342 3,-6c0.76538,-1.84775 0.77023,-4.02673 1,-5c0.51373,-2.17627 2.49347,-4.87854 3,-8c0.16019,-0.98709 0,-4 1,-6c1,-2 1,-5 2,-7c1,-2 0.5405,-5.0535 1,-7c0.51373,-2.17625 0.5405,-4.0535 1,-6c1.0275,-4.35251 1.31073,-7.08025 2,-10c0.51373,-2.17625 1.49347,-3.87856 2,-7c0.32037,-1.97418 0,-6 0,-8c0,-1 0,-4 0,-6c0,-2 0,-5 0,-7c0,-2 0,-5 0,-7c0,-2 0,-3 0,-5c0,-1 0,-3 0,-5c0,-3 0.38269,-5.07613 0,-6c-0.5412,-1.30656 -2,-3 -2,-4c0,-2 -0.77023,-3.02675 -1,-4c-0.51373,-2.17625 -1.5405,-5.0535 -2,-7c-0.51373,-2.17625 -1.70709,-2.29289 -1,-3c0.70709,-0.70711 0,-2 0,-3c0,-1 -0.77023,-2.02675 -1,-3c-0.51373,-2.17625 -1.5405,-2.0535 -2,-4c-0.51373,-2.17625 -2,-3 -3,-4c-1,-1 -3.41885,-2.41887 -5,-4c-1.58115,-1.58115 -2.186,-1.69255 -4,-3c-1.14728,-0.8269 -3.1731,-1.85272 -4,-3c-1.30746,-1.814 -2.38687,-3.91762 -5,-5c-0.92389,-0.38268 -2.41885,0.58113 -4,-1c-1.58115,-1.58115 -2.186,-1.69255 -4,-3c-1.14728,-0.8269 -2.0979,-1.82443 -4,-3c-0.85065,-0.52573 -2,0 -3,-1c-1,-1 -1.69345,-2.4588 -3,-3c-1.84775,-0.76537 -1.82376,-1.48626 -4,-2c-0.97324,-0.22975 -2,-1 -4,-2c-2,-1 -2.41885,-1.41886 -4,-3c-1.58115,-1.58114 -4.15225,-0.23463 -6,-1c-1.30655,-0.5412 -2.87857,-2.49346 -6,-3c-0.98709,-0.16018 -2.02676,0.22975 -3,0c-2.17624,-0.51374 -4,-2 -6,-2c-2,0 -3.02676,0.22975 -4,0c-2.17624,-0.51374 -3.30447,-0.46927 -7,-2c-1.30655,-0.5412 -4,-1 -6,-1c-1,0 -3,0 -5,0c-3,0 -4.87857,-0.49346 -8,-1c-1.97418,-0.32037 -2.82376,-0.48626 -5,-1c-1.9465,-0.4595 -3,0 -5,0c-1,0 -2.69345,-1.4588 -4,-2c-2.77164,-1.14805 -5.02676,0.22975 -6,0c-2.17624,-0.51374 -4.0535,-0.5405 -6,-1c-2.17624,-0.51374 -4.82376,-1.48626 -7,-2c-1.9465,-0.4595 -3,0 -4,0c-3,0 -5.15225,0.76537 -7,0c-1.30655,-0.5412 -2.02676,-0.77025 -3,-1c-2.17624,-0.51374 -4,-1 -5,-1c-2,0 -3.29291,0.70711 -4,0c-0.70709,-0.70711 -1,-1 -2,-1c-1,0 -2,0 -2,-1l-1,0l-1,0" id="svg_8" stroke-linecap="round" stroke-linejoin="bevel" stroke-width="40" stroke="#c5312d" fill="none"/>
 </g>
</svg>